<?xml version="1.0" encoding="UTF-8" standalone="no"?>
<svg
   xmlns:dc="http://purl.org/dc/elements/1.1/"
   xmlns:cc="http://creativecommons.org/ns#"
   xmlns:rdf="http://www.w3.org/1999/02/22-rdf-syntax-ns#"
   xmlns:svg="http://www.w3.org/2000/svg"
   xmlns="http://www.w3.org/2000/svg"
   width="210mm"
   height="210mm"
   viewBox="0 0 210 210"
   version="1.1"
   id="svg8">
  <defs
     id="defs2" />
  <metadata
     id="metadata5">
    <rdf:RDF>
      <cc:Work
         rdf:about="">
        <dc:format>image/svg+xml</dc:format>
        <dc:type
           rdf:resource="http://purl.org/dc/dcmitype/StillImage" />
        <dc:title></dc:title>
      </cc:Work>
    </rdf:RDF>
  </metadata>
  <g
     id="layer1">
    <g
       id="g12"
       style="fill-rule:evenodd;stroke:none;stroke-linejoin:round">
      <path
         id="path24"
         style="fill:#e9e9ff;fill-rule:evenodd;stroke:none;stroke-width:2.27913;stroke-linejoin:round"
         d="M 79.529827,86.130844 181.72104,46.372327 V 173.91069 L 79.529827,172.64587 Z"
         points="181.72104,46.372327 181.72104,173.91069 79.529827,172.64587 79.529827,86.130844 " />
      <path
         id="path14"
         style="fill:#353564;fill-rule:evenodd;stroke:none;stroke-width:2.27913;stroke-linejoin:round"
         d="m 29.452102,73.431892 v 99.617968 l 50.077725,-0.40399 V 86.130844 Z"
         points="29.452102,173.04986 79.529827,172.64587 79.529827,86.130844 29.452102,73.431892 " />
      <path
         id="path22"
         style="fill:#afafde;fill-rule:evenodd;stroke:none;stroke-width:2.27913;stroke-linejoin:round"
         d="m 29.452102,173.04986 97.315068,1.80669 54.95387,-0.94586 -102.191213,-1.26482 z"
         points="126.76717,174.85655 181.72104,173.91069 79.529827,172.64587 29.452102,173.04986 " />
      <path
         id="path16"
         style="fill:#4d4d9f;fill-rule:evenodd;stroke:none;stroke-width:2.27913;stroke-linejoin:round"
         d="M 29.452102,73.431892 126.76717,16.639787 181.72104,46.372327 79.529827,86.130844 Z"
         points="126.76717,16.639787 181.72104,46.372327 79.529827,86.130844 29.452102,73.431892 " />
      <path
         id="path20"
         style="fill:#d7d7ff;fill-rule:evenodd;stroke:none;stroke-width:2.27913;stroke-linejoin:round"
         d="M 126.76717,16.639787 V 174.85655 l 54.95387,-0.94586 V 46.372327 Z"
         points="126.76717,174.85655 181.72104,173.91069 181.72104,46.372327 126.76717,16.639787 " />
      <path
         id="path18"
         style="fill:#8686bf;fill-rule:evenodd;stroke:none;stroke-width:2.27913;stroke-linejoin:round"
         d="M 29.452102,73.431892 126.76717,16.639787 V 174.85655 l -97.315068,-1.80669 z"
         points="126.76717,16.639787 126.76717,174.85655 29.452102,173.04986 29.452102,73.431892 " />
    </g>
  </g>
</svg>
